<svg width="17px" height="15px" viewBox="0 0 17 15" version="1.1" xmlns="http://www.w3.org/2000/svg" xmlns:xlink="http://www.w3.org/1999/xlink">
    <g id="Page-1" stroke="none" stroke-width="1" fill="none" fill-rule="evenodd">
        <g id="Test-(1280)" transform="translate(-1154.000000, -23.000000)" fill="#000000" fill-rule="nonzero" stroke="#000000" stroke-width="0.7">
            <g id="Header" transform="translate(73.000000, 16.000000)">
                <g id="favorites" transform="translate(1082.000000, 8.000000)">
                    <path d="M11.1391304,0.304347826 C9.43478261,0.304347826 8.2173913,1.15652174 7.60869565,1.82608696 C7,1.2173913 5.84347826,0.304347826 4.07826087,0.304347826 C1.70434783,0.304347826 0,2.43478261 0,4.99130435 C0,8.88695652 3.89565217,11.8695652 7.36521739,13.6347826 C7.54782609,13.6956522 7.73043478,13.6956522 7.91304348,13.6347826 C11.3217391,11.8695652 15.2173913,8.88695652 15.2173913,4.99130435 C15.2173913,2.43478261 13.5130435,0.304347826 11.1391304,0.304347826 Z M7.60869565,12.4173913 C4.68695652,10.8956522 1.2173913,8.2173913 1.2173913,4.99130435 C1.2173913,3.16521739 2.37391304,1.52173913 4.13913043,1.52173913 C5.53913043,1.52173913 6.63478261,2.37391304 7.12173913,3.10434783 C7.24347826,3.28695652 7.42608696,3.34782609 7.60869565,3.34782609 C7.79130435,3.34782609 7.97391304,3.22608696 8.09565217,3.04347826 C8.09565217,3.04347826 9.13043478,1.46086957 11.0782609,1.46086957 C12.8434783,1.46086957 14,3.10434783 14,4.93043478 C14,8.2173913 10.5304348,10.8956522 7.60869565,12.4173913 Z" id="Shape"></path>
                </g>
            </g>
        </g>
    </g>
</svg>