<svg width="150px" height="44px" viewBox="0 0 150 44" version="1.1" xmlns="http://www.w3.org/2000/svg" xmlns:xlink="http://www.w3.org/1999/xlink">
    <g id="Page-1" stroke="none" stroke-width="1" fill="none" fill-rule="evenodd">
        <g id="Test-(1280)" transform="translate(-73.000000, -67.000000)" fill="#000000">
            <g id="Header" transform="translate(73.000000, 16.000000)">
                <g id="logo" transform="translate(0.000000, 51.000000)">
                    <path d="M14.792,26.851 L21.285,11.242 L18.576,4.147 L15.695,4.147 L15.695,2.9 L27.735,2.9 L27.735,4.147 L23.521,4.147 L31.562,26.335 L38.614,4.147 L34.271,4.147 L34.271,2.9 L43.172,2.9 L43.172,4.147 L40.334,4.147 L30.616,33.43 L29.627,33.43 L22.102,13.435 L13.631,33.43 L12.642,33.43 L2.881,4.147 L1.42108547e-14,4.147 L1.42108547e-14,2.9 L12.04,2.9 L12.04,4.147 L7.826,4.147 L14.792,26.851 Z M44.677,22.981 C44.677,15.456 48.934,12.102 54.653,12.102 C60.071,12.102 62.78,15.413 62.522,21.906 L49.192,21.906 L49.192,22.508 C49.192,28.7 50.611,31.968 55.298,31.968 C58.781,31.968 60.716,29.775 61.361,26.722 L62.608,26.894 C61.877,30.42 59.727,33.43 54.266,33.43 C47.644,33.43 44.677,29.259 44.677,22.981 Z M49.235,20.745 L58.222,20.745 C58.48,16.058 57.534,13.134 54.266,13.134 C51.084,13.134 49.536,15.843 49.235,20.745 Z M65.403,22.981 C65.403,15.456 69.66,12.102 75.379,12.102 C80.797,12.102 83.506,15.413 83.248,21.906 L69.918,21.906 L69.918,22.508 C69.918,28.7 71.337,31.968 76.024,31.968 C79.507,31.968 81.442,29.775 82.087,26.722 L83.334,26.894 C82.603,30.42 80.453,33.43 74.992,33.43 C68.37,33.43 65.403,29.259 65.403,22.981 Z M69.961,20.745 L78.948,20.745 C79.206,16.058 78.26,13.134 74.992,13.134 C71.81,13.134 70.262,15.843 69.961,20.745 Z M86.215,33.43 L86.215,26.292 L87.333,26.292 C87.591,30.162 90.859,32.011 94.299,32.011 C97.911,32.011 99.416,30.592 99.416,28.141 C99.416,25.389 96.75,24.873 93.826,24.357 C90.386,23.755 86.602,23.11 86.602,18.595 C86.602,15.026 89.397,12.102 93.697,12.102 C95.503,12.102 96.578,12.489 97.911,13.091 C98.212,13.22 98.814,13.392 99.115,13.392 C99.545,13.392 99.631,12.919 99.717,12.016 L100.663,12.016 L100.663,18.38 L99.588,18.38 C98.814,14.983 96.707,13.306 93.697,13.306 C90.988,13.306 89.053,14.51 89.053,16.617 C89.053,19.24 91.676,19.67 94.557,20.186 C97.997,20.831 101.781,21.648 101.781,26.722 C101.781,30.592 99.072,33.43 94.256,33.43 C91.805,33.43 89.999,32.785 88.537,31.968 C88.279,31.796 88.064,31.71 87.892,31.71 C87.505,31.71 87.376,32.054 87.161,33.43 L86.215,33.43 Z M117.175,13.736 C114.294,13.736 111.241,16.144 111.241,19.799 L111.241,26.421 C111.241,29.818 113.391,32.097 116.874,32.097 C120.443,32.097 121.948,29.388 121.948,22.723 C121.948,17.219 121.088,13.736 117.175,13.736 Z M111.37,0.75 L111.37,15.843 C112.746,13.65 114.939,12.102 118.336,12.102 C123.41,12.102 126.463,15.585 126.463,22.551 C126.463,29.689 122.894,33.43 117.39,33.43 C114.165,33.43 112.101,32.441 110.596,30.506 L108.188,33.387 L107.242,33.387 L107.242,1.868 L103.759,1.868 L103.759,0.75 L111.37,0.75 Z M127.968,13.65 L127.968,12.532 L137.858,12.532 L137.858,13.65 L134.332,13.65 L140.008,28.442 L145.426,13.65 L142.029,13.65 L142.029,12.532 L149.296,12.532 L149.296,13.65 L147.146,13.65 L138.288,36.483 C136.095,42.073 134.547,43.75 131.322,43.75 C127.968,43.75 126.721,41.514 126.721,39.794 C126.721,37.73 128.011,36.655 129.43,36.655 C130.634,36.655 131.709,37.386 131.709,38.891 C131.709,39.321 131.623,39.837 131.451,40.439 L129.989,40.439 C129.903,40.74 129.817,41.041 129.817,41.299 C129.817,42.03 130.29,42.589 131.537,42.589 C134.031,42.589 135.45,39.966 136.998,35.666 L137.944,33.043 L129.903,13.65 L127.968,13.65 Z" id="Weesby"></path>
                </g>
            </g>
        </g>
    </g>
</svg>