<svg width="12px" height="12px" viewBox="0 0 12 12" version="1.1" xmlns="http://www.w3.org/2000/svg" xmlns:xlink="http://www.w3.org/1999/xlink">
    <g id="Page-1" stroke="none" stroke-width="1" fill="none" fill-rule="evenodd">
        <g id="Test-(1280)" transform="translate(-233.000000, -22.000000)">
            <g id="Header" transform="translate(73.000000, 16.000000)">
                <g id="search" transform="translate(0.000000, 1.000000)">
                    <g transform="translate(158.000000, 3.000000)">
                        <rect id="Rectangle" fill="#000000" opacity="0" x="0" y="0" width="16" height="16"></rect>
                        <path d="M13.8066667,12.86 L11.54,10.6 C12.2713231,9.66830316 12.6681396,8.51777001 12.6666667,7.33333333 C12.6666667,4.38781467 10.278852,2 7.33333333,2 C4.38781467,2 2,4.38781467 2,7.33333333 C2,10.278852 4.38781467,12.6666667 7.33333333,12.6666667 C8.51777001,12.6681396 9.66830316,12.2713231 10.6,11.54 L12.86,13.8066667 C12.9851777,13.9328751 13.155575,14.0038655 13.3333333,14.0038655 C13.5110917,14.0038655 13.6814889,13.9328751 13.8066667,13.8066667 C13.9328751,13.6814889 14.0038655,13.5110917 14.0038655,13.3333333 C14.0038655,13.155575 13.9328751,12.9851777 13.8066667,12.86 Z M3.33333333,7.33333333 C3.33333333,5.12419433 5.12419433,3.33333333 7.33333333,3.33333333 C9.54247233,3.33333333 11.3333333,5.12419433 11.3333333,7.33333333 C11.3333333,9.54247233 9.54247233,11.3333333 7.33333333,11.3333333 C5.12419433,11.3333333 3.33333333,9.54247233 3.33333333,7.33333333 Z" id="Shape" fill="#9B9B9B" fill-rule="nonzero"></path>
                    </g>
                </g>
            </g>
        </g>
    </g>
</svg>