<svg width="17px" height="18px" viewBox="0 0 17 18" version="1.1" xmlns="http://www.w3.org/2000/svg" xmlns:xlink="http://www.w3.org/1999/xlink">
    <g id="Page-1" stroke="none" stroke-width="1" fill="none" fill-rule="evenodd">
        <g id="Test-(1280)" transform="translate(-1194.000000, -22.000000)" fill="#000000">
            <g id="Header" transform="translate(73.000000, 16.000000)">
                <g id="cart" transform="translate(1119.000000, 0.000000)">
                    <g id="shopping-cart-outline" transform="translate(0.000000, 5.000000)">
                        <rect id="Rectangle" opacity="0" x="0" y="0" width="20" height="20"></rect>
                        <path d="M18.1003826,5.25661464 C17.8130006,4.71013083 17.2852499,4.36941926 16.7104114,4.35926049 L6.24474592,4.35926049 L5.77052046,2.33124012 C5.67186183,1.92813256 5.33298109,1.652909 4.95289034,1.66719805 L3.31763011,1.66719805 C2.86606547,1.66719805 2.5,2.06895719 2.5,2.5645522 C2.5,3.06014721 2.86606547,3.46190635 3.31763011,3.46190635 L4.33149146,3.46190635 L6.58815057,12.6687599 C6.68680921,13.0718674 7.02568995,13.347091 7.40578069,13.3328019 L14.7644517,13.3328019 C15.0723371,13.3317778 15.3535949,13.1410191 15.4921425,12.8392572 L18.1739693,6.95261397 C18.4100647,6.40949262 18.3824334,5.77265653 18.1003826,5.25661464 Z M14.257521,11.5380937 L8.02717957,11.5380937 L6.69444249,6.15396878 L16.7104114,6.15396878 L14.257521,11.5380937 Z" id="Shape" fill-rule="nonzero"></path>
                        <circle id="Oval" cx="7.08333333" cy="17.0833333" r="1.25"></circle>
                        <circle id="Oval" cx="14.5833333" cy="17.0833333" r="1.25"></circle>
                    </g>
                </g>
            </g>
        </g>
    </g>
</svg>