<?xml version="1.0" encoding="utf-8"?><svg xmlns="http://www.w3.org/2000/svg" xmlns:xlink="http://www.w3.org/1999/xlink"><symbol viewBox="0 0 8 15" id="arrow" xmlns="http://www.w3.org/2000/svg"><path d="M.212.22l7.252 6.938-7.252 6.937z" fill-rule="evenodd"/></symbol><symbol viewBox="0 0 12 12" id="close" xmlns="http://www.w3.org/2000/svg"><path d="M7.41 6l4.3-4.29A1.004 1.004 0 1 0 10.29.29L6 4.59 1.71.29A1.004 1.004 0 0 0 .29 1.71L4.59 6l-4.3 4.29a1 1 0 0 0 0 1.42 1 1 0 0 0 1.42 0L6 7.41l4.29 4.3a1 1 0 0 0 1.42 0 1 1 0 0 0 0-1.42L7.41 6z" fill-rule="evenodd"/></symbol><symbol viewBox="0 0 17 15" id="heart" xmlns="http://www.w3.org/2000/svg"><path d="M12.14 1.304a4.805 4.805 0 0 0-3.531 1.522C8 2.217 6.843 1.304 5.079 1.304 2.703 1.304 1 3.434 1 5.991c0 3.896 3.896 6.879 7.365 8.644.183.06.365.06.548 0 3.409-1.765 7.304-4.748 7.304-8.644 0-2.556-1.704-4.687-4.078-4.687zM8.608 13.417c-2.922-1.521-6.392-4.2-6.392-7.426 0-1.826 1.157-3.47 2.922-3.47 1.4 0 2.496.853 2.983 1.583a.554.554 0 0 0 .487.244c.182 0 .365-.122.487-.305 0 0 1.034-1.582 2.982-1.582C13.843 2.46 15 4.104 15 5.93c0 3.286-3.47 5.965-6.391 7.486z" fill-rule="nonzero" stroke-width=".7"/></symbol><symbol viewBox="0 0 150 44" id="logo" xmlns="http://www.w3.org/2000/svg"><path d="M14.792 26.851l6.493-15.609-2.709-7.095h-2.881V2.9h12.04v1.247h-4.214l8.041 22.188 7.052-22.188h-4.343V2.9h8.901v1.247h-2.838L30.616 33.43h-.989l-7.525-19.995-8.471 19.995h-.989L2.881 4.147H0V2.9h12.04v1.247H7.826l6.966 22.704zm29.885-3.87c0-7.525 4.257-10.879 9.976-10.879 5.418 0 8.127 3.311 7.869 9.804h-13.33v.602c0 6.192 1.419 9.46 6.106 9.46 3.483 0 5.418-2.193 6.063-5.246l1.247.172c-.731 3.526-2.881 6.536-8.342 6.536-6.622 0-9.589-4.171-9.589-10.449zm4.558-2.236h8.987c.258-4.687-.688-7.611-3.956-7.611-3.182 0-4.73 2.709-5.031 7.611zm16.168 2.236c0-7.525 4.257-10.879 9.976-10.879 5.418 0 8.127 3.311 7.869 9.804h-13.33v.602c0 6.192 1.419 9.46 6.106 9.46 3.483 0 5.418-2.193 6.063-5.246l1.247.172c-.731 3.526-2.881 6.536-8.342 6.536-6.622 0-9.589-4.171-9.589-10.449zm4.558-2.236h8.987c.258-4.687-.688-7.611-3.956-7.611-3.182 0-4.73 2.709-5.031 7.611zM86.215 33.43v-7.138h1.118c.258 3.87 3.526 5.719 6.966 5.719 3.612 0 5.117-1.419 5.117-3.87 0-2.752-2.666-3.268-5.59-3.784-3.44-.602-7.224-1.247-7.224-5.762 0-3.569 2.795-6.493 7.095-6.493 1.806 0 2.881.387 4.214.989.301.129.903.301 1.204.301.43 0 .516-.473.602-1.376h.946v6.364h-1.075c-.774-3.397-2.881-5.074-5.891-5.074-2.709 0-4.644 1.204-4.644 3.311 0 2.623 2.623 3.053 5.504 3.569 3.44.645 7.224 1.462 7.224 6.536 0 3.87-2.709 6.708-7.525 6.708-2.451 0-4.257-.645-5.719-1.462-.258-.172-.473-.258-.645-.258-.387 0-.516.344-.731 1.72h-.946zm30.96-19.694c-2.881 0-5.934 2.408-5.934 6.063v6.622c0 3.397 2.15 5.676 5.633 5.676 3.569 0 5.074-2.709 5.074-9.374 0-5.504-.86-8.987-4.773-8.987zM111.37.75v15.093c1.376-2.193 3.569-3.741 6.966-3.741 5.074 0 8.127 3.483 8.127 10.449 0 7.138-3.569 10.879-9.073 10.879-3.225 0-5.289-.989-6.794-2.924l-2.408 2.881h-.946V1.868h-3.483V.75h7.611zm16.598 12.9v-1.118h9.89v1.118h-3.526l5.676 14.792 5.418-14.792h-3.397v-1.118h7.267v1.118h-2.15l-8.858 22.833c-2.193 5.59-3.741 7.267-6.966 7.267-3.354 0-4.601-2.236-4.601-3.956 0-2.064 1.29-3.139 2.709-3.139 1.204 0 2.279.731 2.279 2.236 0 .43-.086.946-.258 1.548h-1.462c-.086.301-.172.602-.172.86 0 .731.473 1.29 1.72 1.29 2.494 0 3.913-2.623 5.461-6.923l.946-2.623-8.041-19.393h-1.935z" fill-rule="evenodd"/></symbol><symbol viewBox="0 0 12 12" id="search" xmlns="http://www.w3.org/2000/svg"><path d="M11.807 10.86L9.54 8.6a5.28 5.28 0 0 0 1.127-3.267 5.333 5.333 0 1 0-5.334 5.334A5.28 5.28 0 0 0 8.6 9.54l2.26 2.267a.667.667 0 0 0 .947 0 .667.667 0 0 0 0-.947zM1.333 5.333a4 4 0 1 1 8 0 4 4 0 0 1-8 0z" fill-rule="nonzero"/></symbol><symbol viewBox="0 0 17 18" id="shopping-basket" xmlns="http://www.w3.org/2000/svg"><g transform="translate(-2 -1)" fill-rule="evenodd"><path d="M18.1 5.257c-.287-.547-.815-.888-1.39-.898H6.245L5.77 2.331c-.1-.403-.438-.678-.818-.664H3.318c-.452 0-.818.402-.818.898 0 .495.366.897.818.897H4.33l2.257 9.207c.099.403.438.678.818.664h7.358a.813.813 0 0 0 .728-.494l2.682-5.886a1.949 1.949 0 0 0-.074-1.696zm-3.842 6.281h-6.23L6.693 6.154H16.71l-2.452 5.384z" fill-rule="nonzero"/><circle cx="7.083" cy="17.083" r="1.25"/><circle cx="14.583" cy="17.083" r="1.25"/></g></symbol><symbol viewBox="0 0 0 0" id="sprite" xmlns="http://www.w3.org/2000/svg"/></svg>